<?xml version="1.0" encoding="UTF-8"?><svg id="Layer_1" xmlns="http://www.w3.org/2000/svg" width="24" height="23.95" viewBox="0 0 24 23.95"><path d="M11.9,2.32c-.37-1.61-1.98-2.62-3.59-2.25-1.36.31-2.32,1.52-2.32,2.91,0,1.65,1.34,2.99,2.99,3,1.4,0,2.61-.97,2.92-2.33h.07s.05,0,.08,0c.15.59.51,1,.92,1,.55,0,1-.75,1-1.66s-.45-1.66-1-1.66c-.41,0-.76.41-.92,1-.03,0-.05,0-.08,0h-.07ZM10.49,3.69c-.39.83-1.38,1.19-2.21.8-.5-.23-.85-.7-.94-1.24,1.08.48,2.02.48,3.15.44M7.68,1.95c.57-.72,1.62-.83,2.34-.26.22.18.39.4.5.66h-.02c-1.23.04-1.9.07-2.82-.4M1.75,8.98c1.1-1.32,2.75-2.33,4.75-2.33.87,0,1.65.57,1.91,1.4l.85,2.72h.73c1.1,0,2,.89,2,2s-.89,2-2,2h-2.2c-.86,0-1.63-.55-1.9-1.37-.28.75-.47,1.52-.56,2.32v6.24c0,1.1-.89,2-2,2s-2-.89-2-2v-4.65c-.13-.2-.29-.47-.45-.76-.21-.38-.4-.78-.55-1.19-.15-.4-.33-.98-.33-1.59,0-1.75.66-3.48,1.75-4.78M6.49,7.98c-1.52,0-2.82.77-3.72,1.85-.9,1.08-1.44,2.51-1.44,3.93,0,.38.11.78.24,1.12.13.36.31.71.48,1.02.16.29.32.57.5.84.07.11.11.23.11.36v4.84c0,.37.3.67.67.67s.67-.3.67-.67v-6.28s0-.05,0-.07c.18-1.68.77-3.2,1.43-4.38.18-.32.59-.43.91-.25.15.08.26.22.31.38l.5,1.61c.09.28.34.47.63.47h2.2c.37,0,.67-.3.67-.67s-.3-.67-.67-.67h-1.22c-.29,0-.55-.19-.64-.47l-.99-3.19c-.09-.28-.34-.47-.64-.47M20.96,7.98c1.65,0,2.99-1.34,2.99-2.99s-1.34-2.99-2.99-2.99-2.99,1.34-2.99,2.99,1.34,2.99,2.99,2.99M20.96,6.65c.92,0,1.66-.74,1.66-1.66s-.74-1.66-1.66-1.66-1.66.74-1.66,1.66.74,1.66,1.66,1.66" fill="#fff" fill-rule="evenodd" stroke-width="0"/><path d="M18.88,7.83c-.38-.85-1.3-1.32-2.22-1.14h-.02s0,0,0,0h0s-.01,0-.01,0h0c-.12.03-.23.06-.34.1-.21.08-.42.17-.62.27-.48.25-1.07.67-1.64,1.32-1.16,1.33-2.04,3.44-2.04,6.69,0,.34.07,1.51,1.23,2.09.11.06.22.1.33.13h-6.88v6.65h1.33v-4.66h7.32v4.66h1.33v-5.63c.58.41,1.15.84,1.69,1.3.05.08.12.19.2.33.18.31.41.7.65,1.11l.34.59h0s.02.03.02.03h0s0,0,0,0c.33.58.65,1.14.79,1.35.59.93,1.83,1.2,2.76.61.93-.59,1.2-1.83.61-2.76-.22-.37-.44-.75-.66-1.13h0s-.39-.69-.39-.69c-.24-.41-.48-.83-.68-1.17-.09-.15-.18-.3-.28-.45h0c-.06-.09-.18-.29-.32-.46-.1-.11-.21-.22-.33-.32h-.01c-.12-.11-.23-.21-.35-.31-.43-.35-.87-.69-1.32-1.02h2.62c1.1,0,2-.89,2-2s-.89-2-2-2h-1.49l-1.58-3.52ZM16.99,16.95s-.05-.03-.08-.04c-.02-.02-.05-.04-.07-.05-.39-.25-.78-.47-1.12-.61-.53-.22-.9-.2-1.2-.18h-.03c-.09,0-.18.01-.26,0-.15,0-.29-.04-.42-.1-.43-.21-.49-.65-.49-.89,0-3.01.81-4.78,1.71-5.82.35-.41.78-.75,1.25-1.01.17-.09.35-.16.53-.22.08,0,.16-.02.24-.05.27-.01.52.14.64.39l1.76,3.92c.11.24.34.39.61.39h1.92c.37,0,.67.3.67.67s-.3.67-.67.67h-2.78c-.26,0-.5-.15-.61-.39l-.68-1.51c-.15-.34-.54-.48-.88-.33-.16.07-.28.2-.34.35-.3.73-.51,1.49-.63,2.26-.05.29.11.58.38.71.79.37,1.69.98,2.4,1.51.39.29.74.57,1,.78.13.11.24.2.32.27h0s.06.06.1.1c.04.04.08.07.1.1.03.04.07.09.11.14.04.06.07.11.1.16.07.12.16.26.26.42.19.33.43.74.67,1.15l.39.68h0s.02.04.02.04c.31.54.57.99.66,1.14.2.31.11.72-.2.92s-.72.11-.92-.2c-.26-.44-.52-.88-.77-1.33h0c-.11-.2-.23-.4-.34-.59-.24-.41-.47-.82-.66-1.13-.09-.15-.18-.3-.28-.45-.03-.05-.07-.1-.12-.14h-.01c-.1-.09-.19-.18-.29-.26-.31-.25-.63-.5-.95-.74-.34-.25-.68-.49-1.04-.72" fill="#fff" fill-rule="evenodd" stroke-width="0"/></svg>